<svg xmlns="http://www.w3.org/2000/svg" width="1000" height="390" viewBox="0 0 1000 390" data-palette="8456e6-d46ae7-acb0f6-ed9e3ac3efdb" role="img" aria-labelledby="hero-dark-title hero-dark-desc"><title id="hero-dark-title">patchmem</title><desc id="hero-dark-desc">Compare tool decisions around a memory patch.</desc><defs><linearGradient id="brand" gradientUnits="userSpaceOnUse" x2="1000" y2="390"><stop stop-color="#8c62e8"/><stop offset=".6" stop-color="#d46ae7"/><stop offset="1" stop-color="#acb0f6"/></linearGradient><radialGradient id="halo"><stop stop-color="#8c62e8" stop-opacity=".22"/><stop offset="1" stop-color="#070712" stop-opacity="0"/></radialGradient><filter id="glow"><feGaussianBlur stdDeviation="5"/></filter><pattern id="grid" width="40" height="40" patternUnits="userSpaceOnUse"><path d="M40 0H0V40" fill="none" stroke="#221841" stroke-opacity=".35" stroke-width=".6"/></pattern><marker id="arrow" viewBox="0 0 10 10" refX="8" refY="5" markerWidth="5" markerHeight="5" orient="auto"><path d="m1 1 7 4-7 4" fill="none" stroke="#8c62e8" stroke-width="1.5"/></marker></defs><style>text{font-family:Arial,"Noto Sans",sans-serif}.flow{stroke-dasharray:10 110;animation:flow 6s linear infinite}.pulse{animation:pulse 5s ease-in-out infinite}.turn{transform-box:fill-box;transform-origin:center;animation:turn 36s linear infinite}@keyframes flow{to{stroke-dashoffset:-360}}@keyframes pulse{0%,100%{opacity:.45}50%{opacity:1}}@keyframes turn{to{transform:rotate(360deg)}}@media(prefers-reduced-motion:reduce){*{animation:none!important;transform:none!important}.flow{display:none}}</style><rect width="1000" height="390" rx="16" fill="#070712"/><rect width="1000" height="390" rx="16" fill="url(#grid)"/><ellipse cx="630.0" cy="167.7" rx="500.0" ry="273.0" fill="url(#halo)"/><circle cx="652.90" cy="382.00" r="0.82" fill="#d46ae7" opacity="0.42"/><circle cx="810.30" cy="281.52" r="1.49" fill="#8c62e8" opacity="0.58"/><circle cx="817.14" cy="243.03" r="1.38" fill="#8c62e8" opacity="0.41"/><circle cx="766.53" cy="104.57" r="1.42" fill="#d46ae7" opacity="0.49"/><circle cx="587.28" cy="166.06" r="1.26" fill="#8c62e8" opacity="0.76"/><circle cx="805.61" cy="373.78" r="0.85" fill="#8c62e8" opacity="0.46"/><circle cx="708.73" cy="164.81" r="1.61" fill="#d46ae7" opacity="0.62"/><circle cx="813.61" cy="363.68" r="0.82" fill="#8c62e8" opacity="0.31"/><circle cx="987.25" cy="384.81" r="1.58" fill="#8c62e8" opacity="0.74"/><circle cx="789.03" cy="260.70" r="1.02" fill="#d46ae7" opacity="0.44"/><circle cx="751.20" cy="374.50" r="0.90" fill="#8c62e8" opacity="0.55"/><circle cx="997.09" cy="270.00" r="1.19" fill="#8c62e8" opacity="0.23"/><circle cx="752.05" cy="242.70" r="1.58" fill="#d46ae7" opacity="0.52"/><circle cx="824.23" cy="431.69" r="1.26" fill="#8c62e8" opacity="0.22"/><circle cx="1049.04" cy="275.38" r="0.91" fill="#8c62e8" opacity="0.21"/><circle cx="609.69" cy="111.60" r="1.50" fill="#d46ae7" opacity="0.79"/><circle cx="930.63" cy="229.31" r="0.72" fill="#8c62e8" opacity="0.78"/><circle cx="896.70" cy="57.19" r="1.37" fill="#8c62e8" opacity="0.61"/><circle cx="943.30" cy="102.01" r="1.18" fill="#d46ae7" opacity="0.60"/><circle cx="583.90" cy="269.08" r="1.46" fill="#8c62e8" opacity="0.72"/><circle cx="743.55" cy="315.25" r="1.57" fill="#8c62e8" opacity="0.26"/><circle cx="1008.82" cy="370.21" r="1.17" fill="#d46ae7" opacity="0.53"/><circle cx="973.05" cy="53.28" r="0.79" fill="#8c62e8" opacity="0.51"/><circle cx="634.83" cy="93.06" r="0.77" fill="#8c62e8" opacity="0.62"/><circle cx="718.52" cy="92.04" r="1.07" fill="#d46ae7" opacity="0.78"/><circle cx="759.92" cy="292.09" r="1.00" fill="#8c62e8" opacity="0.52"/><circle cx="1057.44" cy="310.30" r="0.73" fill="#8c62e8" opacity="0.48"/><circle cx="640.36" cy="312.35" r="0.61" fill="#d46ae7" opacity="0.65"/><circle cx="679.61" cy="130.27" r="1.34" fill="#8c62e8" opacity="0.26"/><circle cx="793.68" cy="326.56" r="1.63" fill="#8c62e8" opacity="0.40"/><circle cx="983.99" cy="58.88" r="0.84" fill="#d46ae7" opacity="0.79"/><circle cx="1053.26" cy="197.36" r="1.03" fill="#8c62e8" opacity="0.71"/><circle cx="576.51" cy="237.09" r="1.55" fill="#8c62e8" opacity="0.62"/><circle cx="867.57" cy="354.50" r="0.95" fill="#d46ae7" opacity="0.78"/><circle cx="767.33" cy="291.78" r="1.60" fill="#8c62e8" opacity="0.47"/><circle cx="730.17" cy="43.47" r="1.30" fill="#8c62e8" opacity="0.67"/><circle cx="938.29" cy="336.79" r="0.84" fill="#d46ae7" opacity="0.43"/><circle cx="635.40" cy="314.35" r="1.01" fill="#8c62e8" opacity="0.41"/><circle cx="644.91" cy="324.18" r="1.18" fill="#8c62e8" opacity="0.54"/><circle cx="716.11" cy="52.99" r="0.69" fill="#d46ae7" opacity="0.76"/><circle cx="966.34" cy="347.01" r="1.43" fill="#8c62e8" opacity="0.41"/><circle cx="638.69" cy="371.38" r="1.11" fill="#8c62e8" opacity="0.41"/><circle cx="1047.85" cy="182.27" r="0.61" fill="#d46ae7" opacity="0.23"/><circle cx="979.36" cy="259.15" r="1.64" fill="#8c62e8" opacity="0.60"/><circle cx="924.38" cy="217.28" r="0.73" fill="#8c62e8" opacity="0.41"/><circle cx="887.52" cy="395.96" r="1.57" fill="#d46ae7" opacity="0.61"/><circle cx="637.28" cy="117.91" r="0.63" fill="#8c62e8" opacity="0.54"/><circle cx="804.10" cy="18.78" r="0.96" fill="#8c62e8" opacity="0.41"/><circle cx="1081.50" cy="212.56" r="1.31" fill="#d46ae7" opacity="0.64"/><circle cx="577.51" cy="276.85" r="1.22" fill="#8c62e8" opacity="0.34"/><circle cx="1056.29" cy="163.17" r="1.12" fill="#8c62e8" opacity="0.80"/><circle cx="1014.48" cy="102.10" r="1.65" fill="#d46ae7" opacity="0.61"/><circle cx="603.09" cy="120.79" r="0.75" fill="#8c62e8" opacity="0.39"/><circle cx="790.98" cy="323.93" r="1.69" fill="#8c62e8" opacity="0.54"/><circle cx="1033.30" cy="296.18" r="1.46" fill="#d46ae7" opacity="0.46"/><circle cx="896.94" cy="406.02" r="1.03" fill="#8c62e8" opacity="0.31"/><circle cx="1062.09" cy="308.04" r="1.08" fill="#8c62e8" opacity="0.71"/><circle cx="631.47" cy="317.24" r="0.77" fill="#d46ae7" opacity="0.37"/><circle cx="819.64" cy="15.09" r="1.22" fill="#8c62e8" opacity="0.74"/><circle cx="593.14" cy="136.98" r="1.01" fill="#8c62e8" opacity="0.47"/><circle cx="643.10" cy="209.45" r="1.15" fill="#d46ae7" opacity="0.73"/><circle cx="812.30" cy="30.63" r="0.90" fill="#8c62e8" opacity="0.50"/><circle cx="1066.52" cy="211.16" r="1.08" fill="#8c62e8" opacity="0.79"/><circle cx="1076.75" cy="268.53" r="1.51" fill="#d46ae7" opacity="0.28"/><circle cx="605.83" cy="222.69" r="1.67" fill="#8c62e8" opacity="0.29"/><circle cx="1059.07" cy="298.77" r="1.29" fill="#8c62e8" opacity="0.39"/><circle cx="722.23" cy="378.84" r="0.91" fill="#d46ae7" opacity="0.54"/><circle cx="796.32" cy="426.93" r="1.34" fill="#8c62e8" opacity="0.65"/><circle cx="811.55" cy="134.06" r="1.44" fill="#8c62e8" opacity="0.49"/><circle cx="602.95" cy="302.58" r="0.93" fill="#d46ae7" opacity="0.79"/><circle cx="931.12" cy="356.60" r="1.57" fill="#8c62e8" opacity="0.75"/><circle cx="994.56" cy="191.10" r="1.11" fill="#8c62e8" opacity="0.70"/><circle cx="927.65" cy="117.91" r="1.45" fill="#d46ae7" opacity="0.33"/><circle cx="782.21" cy="50.52" r="1.18" fill="#8c62e8" opacity="0.56"/><circle cx="829.49" cy="305.17" r="1.17" fill="#8c62e8" opacity="0.66"/><circle cx="617.80" cy="169.36" r="1.55" fill="#d46ae7" opacity="0.50"/><circle cx="1049.23" cy="119.34" r="0.88" fill="#8c62e8" opacity="0.32"/><circle cx="637.45" cy="260.81" r="1.45" fill="#8c62e8" opacity="0.22"/><circle cx="636.25" cy="369.41" r="1.14" fill="#d46ae7" opacity="0.71"/><circle cx="795.51" cy="432.08" r="0.79" fill="#8c62e8" opacity="0.29"/><circle cx="907.01" cy="260.78" r="1.18" fill="#8c62e8" opacity="0.24"/><circle cx="920.08" cy="30.09" r="1.38" fill="#d46ae7" opacity="0.54"/><circle cx="969.30" cy="397.49" r="0.82" fill="#8c62e8" opacity="0.27"/><circle cx="767.17" cy="286.23" r="1.31" fill="#8c62e8" opacity="0.35"/><circle cx="878.47" cy="35.20" r="1.58" fill="#d46ae7" opacity="0.31"/><circle cx="1014.09" cy="327.35" r="0.73" fill="#8c62e8" opacity="0.60"/><circle cx="828.18" cy="56.47" r="1.69" fill="#8c62e8" opacity="0.74"/><circle cx="793.78" cy="328.84" r="1.23" fill="#d46ae7" opacity="0.61"/><circle cx="670.48" cy="59.17" r="1.57" fill="#8c62e8" opacity="0.69"/><circle cx="1082.82" cy="251.33" r="0.71" fill="#8c62e8" opacity="0.42"/><circle cx="1056.83" cy="181.05" r="1.59" fill="#d46ae7" opacity="0.25"/><circle cx="859.59" cy="428.83" r="1.67" fill="#8c62e8" opacity="0.32"/><circle cx="725.55" cy="83.06" r="1.25" fill="#8c62e8" opacity="0.76"/><circle cx="850.86" cy="16.58" r="1.04" fill="#d46ae7" opacity="0.38"/><circle cx="663.63" cy="95.58" r="1.20" fill="#8c62e8" opacity="0.52"/><circle cx="1067.27" cy="149.03" r="1.44" fill="#8c62e8" opacity="0.60"/><circle cx="865.79" cy="429.41" r="0.99" fill="#d46ae7" opacity="0.77"/><circle cx="988.72" cy="130.72" r="1.02" fill="#8c62e8" opacity="0.51"/><circle cx="893.67" cy="58.24" r="0.90" fill="#8c62e8" opacity="0.66"/><circle cx="851.15" cy="78.47" r="0.90" fill="#d46ae7" opacity="0.25"/><circle cx="927.85" cy="71.23" r="0.77" fill="#8c62e8" opacity="0.74"/><circle cx="620.87" cy="332.62" r="0.83" fill="#8c62e8" opacity="0.37"/><circle cx="942.77" cy="349.51" r="1.56" fill="#d46ae7" opacity="0.68"/><circle cx="921.13" cy="100.99" r="0.67" fill="#8c62e8" opacity="0.72"/><circle cx="825.68" cy="15.81" r="1.51" fill="#8c62e8" opacity="0.32"/><circle cx="637.20" cy="171.54" r="1.17" fill="#d46ae7" opacity="0.79"/><circle cx="948.69" cy="407.88" r="0.82" fill="#8c62e8" opacity="0.48"/><circle cx="734.18" cy="347.64" r="1.62" fill="#8c62e8" opacity="0.63"/><circle cx="646.07" cy="275.10" r="1.21" fill="#d46ae7" opacity="0.41"/><circle cx="1053.39" cy="300.50" r="1.41" fill="#8c62e8" opacity="0.71"/><circle cx="609.95" cy="228.66" r="1.37" fill="#8c62e8" opacity="0.47"/><circle cx="883.31" cy="182.71" r="1.29" fill="#d46ae7" opacity="0.26"/><circle cx="675.75" cy="70.00" r="0.79" fill="#8c62e8" opacity="0.51"/><circle cx="661.46" cy="359.84" r="1.10" fill="#8c62e8" opacity="0.67"/><circle cx="957.91" cy="60.85" r="1.54" fill="#d46ae7" opacity="0.74"/><circle cx="855.86" cy="27.30" r="0.94" fill="#8c62e8" opacity="0.40"/><circle cx="863.44" cy="33.25" r="1.05" fill="#8c62e8" opacity="0.66"/><circle cx="901.37" cy="72.58" r="1.61" fill="#d46ae7" opacity="0.22"/><circle cx="913.76" cy="208.75" r="1.53" fill="#8c62e8" opacity="0.37"/><circle cx="722.10" cy="174.63" r="0.62" fill="#8c62e8" opacity="0.29"/><circle cx="645.42" cy="310.03" r="0.71" fill="#d46ae7" opacity="0.38"/><circle cx="965.97" cy="273.84" r="1.62" fill="#8c62e8" opacity="0.71"/><circle cx="681.55" cy="50.01" r="1.24" fill="#8c62e8" opacity="0.74"/><circle cx="902.43" cy="216.27" r="0.68" fill="#d46ae7" opacity="0.47"/><circle cx="1002.76" cy="92.94" r="0.83" fill="#8c62e8" opacity="0.24"/><circle cx="921.57" cy="56.16" r="0.99" fill="#8c62e8" opacity="0.37"/><circle cx="720.72" cy="55.49" r="0.84" fill="#d46ae7" opacity="0.52"/><circle cx="907.08" cy="71.89" r="1.00" fill="#8c62e8" opacity="0.63"/><circle cx="836.19" cy="348.27" r="1.67" fill="#8c62e8" opacity="0.24"/><circle cx="823.13" cy="431.55" r="1.44" fill="#d46ae7" opacity="0.63"/><circle cx="600.48" cy="200.86" r="1.37" fill="#8c62e8" opacity="0.48"/><circle cx="597.52" cy="257.72" r="0.95" fill="#8c62e8" opacity="0.68"/><circle cx="705.26" cy="388.07" r="1.10" fill="#d46ae7" opacity="0.27"/><circle cx="918.88" cy="134.80" r="1.37" fill="#8c62e8" opacity="0.40"/><circle cx="821.61" cy="20.89" r="1.39" fill="#8c62e8" opacity="0.68"/><circle cx="750.70" cy="383.70" r="0.70" fill="#d46ae7" opacity="0.49"/><circle cx="996.79" cy="268.75" r="0.84" fill="#8c62e8" opacity="0.21"/><circle cx="698.99" cy="364.34" r="1.35" fill="#8c62e8" opacity="0.46"/><circle cx="1011.51" cy="359.61" r="1.15" fill="#d46ae7" opacity="0.61"/><circle cx="824.50" cy="230.82" r="0.89" fill="#8c62e8" opacity="0.73"/><circle cx="761.35" cy="179.07" r="1.50" fill="#8c62e8" opacity="0.63"/><circle cx="585.91" cy="247.39" r="1.46" fill="#d46ae7" opacity="0.27"/><circle cx="839.07" cy="19.75" r="1.60" fill="#8c62e8" opacity="0.47"/><circle cx="618.03" cy="115.19" r="1.41" fill="#8c62e8" opacity="0.73"/><circle cx="849.74" cy="408.28" r="0.91" fill="#d46ae7" opacity="0.68"/><circle cx="1059.90" cy="183.33" r="0.92" fill="#8c62e8" opacity="0.68"/><circle cx="909.72" cy="405.79" r="0.61" fill="#8c62e8" opacity="0.59"/><circle cx="1042.02" cy="280.47" r="0.99" fill="#d46ae7" opacity="0.41"/><circle cx="632.48" cy="102.38" r="1.64" fill="#8c62e8" opacity="0.32"/><circle cx="630.76" cy="128.40" r="1.05" fill="#8c62e8" opacity="0.46"/><circle cx="829.39" cy="403.99" r="1.32" fill="#d46ae7" opacity="0.48"/><circle cx="979.63" cy="57.83" r="0.86" fill="#8c62e8" opacity="0.41"/><circle cx="784.98" cy="278.42" r="1.01" fill="#8c62e8" opacity="0.22"/><circle cx="1038.14" cy="114.55" r="1.60" fill="#d46ae7" opacity="0.69"/><circle cx="856.40" cy="420.61" r="1.36" fill="#8c62e8" opacity="0.33"/><circle cx="591.75" cy="317.40" r="1.17" fill="#8c62e8" opacity="0.54"/><circle cx="771.89" cy="327.36" r="0.94" fill="#d46ae7" opacity="0.25"/><circle cx="898.95" cy="206.22" r="0.64" fill="#8c62e8" opacity="0.72"/><circle cx="778.66" cy="368.64" r="1.54" fill="#8c62e8" opacity="0.49"/><circle cx="1080.90" cy="195.84" r="0.93" fill="#d46ae7" opacity="0.50"/><circle cx="637.82" cy="90.44" r="1.55" fill="#8c62e8" opacity="0.38"/><circle cx="618.69" cy="97.49" r="1.14" fill="#8c62e8" opacity="0.78"/><circle cx="644.59" cy="275.75" r="1.33" fill="#d46ae7" opacity="0.30"/><circle cx="590.20" cy="300.27" r="1.25" fill="#8c62e8" opacity="0.35"/><circle cx="1067.30" cy="268.44" r="1.45" fill="#8c62e8" opacity="0.43"/><circle cx="740.51" cy="275.80" r="1.65" fill="#d46ae7" opacity="0.62"/><circle cx="779.64" cy="41.59" r="1.12" fill="#8c62e8" opacity="0.69"/><circle cx="677.22" cy="312.84" r="1.08" fill="#8c62e8" opacity="0.75"/><circle cx="1074.22" cy="240.52" r="0.79" fill="#d46ae7" opacity="0.52"/><circle cx="964.45" cy="49.23" r="0.92" fill="#8c62e8" opacity="0.54"/><circle cx="566.15" cy="236.02" r="0.84" fill="#8c62e8" opacity="0.49"/><circle cx="889.81" cy="99.42" r="0.62" fill="#d46ae7" opacity="0.50"/><circle cx="870.44" cy="78.79" r="1.63" fill="#8c62e8" opacity="0.30"/><circle cx="841.94" cy="323.70" r="1.06" fill="#8c62e8" opacity="0.59"/><circle cx="641.39" cy="92.20" r="1.38" fill="#d46ae7" opacity="0.26"/><circle cx="795.37" cy="431.37" r="1.39" fill="#8c62e8" opacity="0.34"/><circle cx="991.94" cy="352.62" r="1.03" fill="#8c62e8" opacity="0.50"/><circle cx="757.75" cy="253.17" r="0.87" fill="#d46ae7" opacity="0.74"/><circle cx="802.61" cy="421.85" r="1.27" fill="#8c62e8" opacity="0.46"/><circle cx="681.83" cy="103.45" r="1.15" fill="#8c62e8" opacity="0.24"/><circle cx="764.84" cy="428.97" r="1.11" fill="#d46ae7" opacity="0.66"/><circle cx="1011.48" cy="104.02" r="1.07" fill="#8c62e8" opacity="0.78"/><circle cx="841.54" cy="86.97" r="1.68" fill="#8c62e8" opacity="0.54"/><circle cx="795.92" cy="429.47" r="1.07" fill="#d46ae7" opacity="0.27"/><circle cx="614.25" cy="186.23" r="1.63" fill="#8c62e8" opacity="0.71"/><circle cx="752.92" cy="237.02" r="1.60" fill="#8c62e8" opacity="0.33"/><circle cx="1050.08" cy="120.46" r="1.49" fill="#d46ae7" opacity="0.28"/><circle cx="944.81" cy="384.99" r="1.51" fill="#8c62e8" opacity="0.54"/><circle cx="946.99" cy="108.75" r="1.40" fill="#8c62e8" opacity="0.58"/><circle cx="646.03" cy="75.27" r="0.65" fill="#d46ae7" opacity="0.27"/><circle cx="803.67" cy="426.59" r="0.95" fill="#8c62e8" opacity="0.75"/><circle cx="1023.76" cy="355.05" r="1.14" fill="#8c62e8" opacity="0.56"/><circle cx="1039.25" cy="268.57" r="1.46" fill="#d46ae7" opacity="0.73"/><circle cx="705.23" cy="47.26" r="0.74" fill="#8c62e8" opacity="0.57"/><circle cx="806.87" cy="196.68" r="1.46" fill="#8c62e8" opacity="0.75"/><circle cx="1069.59" cy="208.08" r="1.30" fill="#d46ae7" opacity="0.29"/><circle cx="857.81" cy="245.90" r="1.26" fill="#8c62e8" opacity="0.68"/><circle cx="837.55" cy="315.43" r="1.67" fill="#8c62e8" opacity="0.38"/><circle cx="1055.77" cy="306.17" r="1.53" fill="#d46ae7" opacity="0.71"/><circle cx="764.30" cy="159.36" r="0.65" fill="#8c62e8" opacity="0.51"/><circle cx="1061.31" cy="311.08" r="0.64" fill="#8c62e8" opacity="0.76"/><circle cx="907.00" cy="412.22" r="1.16" fill="#d46ae7" opacity="0.25"/><circle cx="629.74" cy="325.62" r="1.32" fill="#8c62e8" opacity="0.44"/><circle cx="566.37" cy="243.78" r="1.15" fill="#8c62e8" opacity="0.45"/><circle cx="795.26" cy="332.35" r="0.79" fill="#d46ae7" opacity="0.40"/><circle cx="856.18" cy="276.27" r="0.77" fill="#8c62e8" opacity="0.53"/><circle cx="768.63" cy="60.60" r="1.64" fill="#8c62e8" opacity="0.35"/><circle cx="987.36" cy="215.86" r="1.30" fill="#d46ae7" opacity="0.79"/><circle cx="1048.90" cy="167.06" r="1.58" fill="#8c62e8" opacity="0.30"/><circle cx="876.74" cy="430.21" r="1.69" fill="#8c62e8" opacity="0.54"/><circle cx="1011.33" cy="163.71" r="1.23" fill="#d46ae7" opacity="0.48"/><circle cx="615.97" cy="322.36" r="1.37" fill="#8c62e8" opacity="0.42"/><circle cx="957.42" cy="395.61" r="1.07" fill="#8c62e8" opacity="0.57"/><circle cx="608.93" cy="270.59" r="0.78" fill="#d46ae7" opacity="0.62"/><circle cx="812.74" cy="377.57" r="1.47" fill="#8c62e8" opacity="0.48"/><circle cx="921.89" cy="187.48" r="1.36" fill="#8c62e8" opacity="0.38"/><circle cx="991.27" cy="63.76" r="1.69" fill="#d46ae7" opacity="0.54"/><circle cx="1053.55" cy="184.44" r="0.83" fill="#8c62e8" opacity="0.28"/><circle cx="881.86" cy="155.11" r="1.29" fill="#8c62e8" opacity="0.33"/><circle cx="873.12" cy="280.10" r="1.15" fill="#d46ae7" opacity="0.45"/><circle cx="994.92" cy="381.64" r="1.57" fill="#8c62e8" opacity="0.31"/><circle cx="926.02" cy="156.80" r="0.76" fill="#8c62e8" opacity="0.45"/><circle cx="574.97" cy="267.46" r="1.67" fill="#d46ae7" opacity="0.61"/><circle cx="715.02" cy="218.00" r="1.17" fill="#8c62e8" opacity="0.28"/><circle cx="884.54" cy="425.02" r="1.03" fill="#8c62e8" opacity="0.27"/><circle cx="891.16" cy="301.33" r="1.06" fill="#d46ae7" opacity="0.32"/><circle cx="1032.87" cy="224.15" r="1.09" fill="#8c62e8" opacity="0.77"/><circle cx="950.62" cy="97.55" r="1.43" fill="#8c62e8" opacity="0.54"/><circle cx="795.76" cy="422.72" r="0.92" fill="#d46ae7" opacity="0.60"/><circle cx="975.14" cy="321.54" r="0.69" fill="#8c62e8" opacity="0.32"/><circle cx="995.33" cy="276.04" r="1.61" fill="#8c62e8" opacity="0.65"/><circle cx="633.41" cy="245.07" r="0.88" fill="#d46ae7" opacity="0.57"/><circle cx="752.62" cy="374.09" r="0.63" fill="#8c62e8" opacity="0.32"/><circle cx="835.81" cy="434.28" r="0.85" fill="#8c62e8" opacity="0.45"/><circle cx="975.38" cy="345.62" r="1.15" fill="#d46ae7" opacity="0.61"/><circle cx="590.21" cy="141.25" r="0.88" fill="#8c62e8" opacity="0.70"/><circle cx="761.79" cy="22.07" r="0.72" fill="#8c62e8" opacity="0.63"/><circle cx="725.06" cy="37.31" r="0.96" fill="#d46ae7" opacity="0.60"/><circle cx="730.67" cy="240.95" r="0.74" fill="#8c62e8" opacity="0.53"/><circle cx="909.21" cy="84.98" r="0.67" fill="#8c62e8" opacity="0.73"/><circle cx="765.66" cy="23.58" r="0.78" fill="#d46ae7" opacity="0.38"/><circle cx="675.29" cy="223.71" r="1.23" fill="#8c62e8" opacity="0.75"/><circle cx="886.23" cy="428.93" r="1.42" fill="#8c62e8" opacity="0.58"/><circle cx="1075.33" cy="255.91" r="0.83" fill="#d46ae7" opacity="0.72"/><circle cx="581.15" cy="157.32" r="1.69" fill="#8c62e8" opacity="0.23"/><circle cx="654.71" cy="368.88" r="1.52" fill="#8c62e8" opacity="0.68"/><circle cx="735.97" cy="405.55" r="1.28" fill="#d46ae7" opacity="0.21"/><circle cx="776.87" cy="358.00" r="1.28" fill="#8c62e8" opacity="0.38"/><circle cx="633.19" cy="110.55" r="0.62" fill="#8c62e8" opacity="0.61"/><circle cx="868.92" cy="412.87" r="1.26" fill="#d46ae7" opacity="0.32"/><circle cx="584.01" cy="161.73" r="1.30" fill="#8c62e8" opacity="0.52"/><circle cx="1074.76" cy="187.36" r="1.65" fill="#8c62e8" opacity="0.21"/><circle cx="739.95" cy="410.97" r="0.82" fill="#d46ae7" opacity="0.64"/><circle cx="723.58" cy="412.35" r="1.13" fill="#8c62e8" opacity="0.75"/><circle cx="611.47" cy="117.53" r="1.53" fill="#8c62e8" opacity="0.28"/><circle cx="882.17" cy="421.41" r="0.89" fill="#d46ae7" opacity="0.79"/><circle cx="897.65" cy="137.64" r="1.53" fill="#8c62e8" opacity="0.65"/><circle cx="582.15" cy="207.78" r="1.55" fill="#8c62e8" opacity="0.23"/><circle cx="877.17" cy="203.15" r="1.12" fill="#d46ae7" opacity="0.78"/><circle cx="591.13" cy="287.50" r="1.61" fill="#8c62e8" opacity="0.78"/><circle cx="640.46" cy="84.92" r="1.29" fill="#8c62e8" opacity="0.58"/><circle cx="767.65" cy="372.57" r="1.39" fill="#d46ae7" opacity="0.45"/><circle cx="948.81" cy="406.07" r="0.97" fill="#8c62e8" opacity="0.43"/><circle cx="606.94" cy="274.31" r="1.37" fill="#8c62e8" opacity="0.78"/><circle cx="607.85" cy="122.64" r="0.68" fill="#d46ae7" opacity="0.43"/><circle cx="1029.86" cy="144.86" r="0.89" fill="#8c62e8" opacity="0.28"/><circle cx="713.97" cy="196.11" r="1.11" fill="#8c62e8" opacity="0.29"/><circle cx="786.99" cy="315.61" r="0.69" fill="#d46ae7" opacity="0.34"/><circle cx="739.00" cy="240.55" r="0.87" fill="#8c62e8" opacity="0.24"/><circle cx="840.68" cy="292.32" r="0.92" fill="#8c62e8" opacity="0.40"/><circle cx="657.59" cy="356.54" r="1.56" fill="#d46ae7" opacity="0.51"/><circle cx="943.92" cy="45.82" r="1.25" fill="#8c62e8" opacity="0.58"/><circle cx="651.98" cy="89.95" r="1.54" fill="#8c62e8" opacity="0.42"/><circle cx="901.94" cy="25.12" r="0.86" fill="#d46ae7" opacity="0.40"/><circle cx="723.85" cy="417.80" r="1.32" fill="#8c62e8" opacity="0.36"/><circle cx="632.97" cy="324.38" r="1.59" fill="#8c62e8" opacity="0.76"/><circle cx="965.29" cy="387.80" r="1.13" fill="#d46ae7" opacity="0.70"/><circle cx="1054.39" cy="174.37" r="1.33" fill="#8c62e8" opacity="0.40"/><circle cx="795.84" cy="356.30" r="1.59" fill="#8c62e8" opacity="0.61"/><circle cx="855.07" cy="432.60" r="0.93" fill="#d46ae7" opacity="0.22"/><circle cx="1057.47" cy="282.22" r="1.04" fill="#8c62e8" opacity="0.65"/><circle cx="617.40" cy="234.94" r="0.71" fill="#8c62e8" opacity="0.21"/><circle cx="599.57" cy="120.62" r="1.13" fill="#d46ae7" opacity="0.75"/><circle cx="617.22" cy="276.21" r="1.29" fill="#8c62e8" opacity="0.23"/><circle cx="709.67" cy="307.30" r="0.61" fill="#8c62e8" opacity="0.38"/><circle cx="671.56" cy="392.30" r="0.76" fill="#d46ae7" opacity="0.51"/><circle cx="916.11" cy="248.70" r="1.22" fill="#8c62e8" opacity="0.48"/><circle cx="592.97" cy="134.43" r="1.39" fill="#8c62e8" opacity="0.54"/><circle cx="616.56" cy="265.38" r="1.44" fill="#d46ae7" opacity="0.51"/><circle cx="963.86" cy="134.73" r="1.69" fill="#8c62e8" opacity="0.60"/><circle cx="602.42" cy="136.38" r="1.19" fill="#8c62e8" opacity="0.20"/><circle cx="1029.88" cy="185.76" r="1.54" fill="#d46ae7" opacity="0.72"/><circle cx="989.80" cy="82.13" r="1.44" fill="#8c62e8" opacity="0.47"/><circle cx="1019.20" cy="317.70" r="1.37" fill="#8c62e8" opacity="0.30"/><circle cx="930.64" cy="148.43" r="1.45" fill="#d46ae7" opacity="0.64"/><circle cx="779.30" cy="94.28" r="1.62" fill="#8c62e8" opacity="0.76"/><circle cx="673.19" cy="311.25" r="1.33" fill="#8c62e8" opacity="0.79"/><circle cx="901.45" cy="27.91" r="0.81" fill="#d46ae7" opacity="0.73"/><circle cx="914.03" cy="28.62" r="1.06" fill="#8c62e8" opacity="0.71"/><circle cx="739.41" cy="169.60" r="1.18" fill="#8c62e8" opacity="0.52"/><circle cx="935.15" cy="66.49" r="0.67" fill="#d46ae7" opacity="0.23"/><circle cx="1068.77" cy="285.43" r="0.86" fill="#8c62e8" opacity="0.62"/><circle cx="868.99" cy="171.10" r="0.86" fill="#8c62e8" opacity="0.68"/><circle cx="1054.27" cy="264.91" r="0.70" fill="#d46ae7" opacity="0.26"/><circle cx="927.51" cy="63.56" r="0.94" fill="#8c62e8" opacity="0.52"/><circle cx="1030.13" cy="109.67" r="1.16" fill="#8c62e8" opacity="0.57"/><circle cx="737.34" cy="344.20" r="1.65" fill="#d46ae7" opacity="0.49"/><circle cx="949.34" cy="90.54" r="1.52" fill="#8c62e8" opacity="0.49"/><circle cx="749.08" cy="56.10" r="1.50" fill="#8c62e8" opacity="0.29"/><circle cx="707.60" cy="394.83" r="0.79" fill="#d46ae7" opacity="0.54"/><circle cx="756.26" cy="423.73" r="1.14" fill="#8c62e8" opacity="0.59"/><circle cx="875.10" cy="418.43" r="1.22" fill="#8c62e8" opacity="0.76"/><circle cx="1027.26" cy="193.43" r="0.74" fill="#d46ae7" opacity="0.63"/><circle cx="904.90" cy="271.96" r="1.52" fill="#8c62e8" opacity="0.30"/><circle cx="740.32" cy="417.16" r="1.26" fill="#8c62e8" opacity="0.29"/><circle cx="1042.26" cy="213.83" r="1.03" fill="#d46ae7" opacity="0.68"/><circle cx="978.29" cy="252.86" r="0.65" fill="#8c62e8" opacity="0.62"/><circle cx="838.16" cy="360.32" r="1.03" fill="#8c62e8" opacity="0.42"/><circle cx="1025.10" cy="154.88" r="1.21" fill="#d46ae7" opacity="0.68"/><circle cx="883.35" cy="172.47" r="1.70" fill="#8c62e8" opacity="0.32"/><circle cx="912.47" cy="348.54" r="0.65" fill="#8c62e8" opacity="0.63"/><circle cx="841.02" cy="434.39" r="0.70" fill="#d46ae7" opacity="0.74"/><circle cx="929.31" cy="352.90" r="1.48" fill="#8c62e8" opacity="0.54"/><circle cx="567.69" cy="214.57" r="1.56" fill="#8c62e8" opacity="0.65"/><circle cx="890.11" cy="30.56" r="0.99" fill="#d46ae7" opacity="0.79"/><circle cx="1053.65" cy="302.84" r="1.27" fill="#8c62e8" opacity="0.64"/><circle cx="602.66" cy="182.53" r="1.66" fill="#8c62e8" opacity="0.26"/><circle cx="685.99" cy="69.27" r="0.81" fill="#d46ae7" opacity="0.31"/><circle cx="778.83" cy="175.00" r="0.79" fill="#8c62e8" opacity="0.54"/><circle cx="607.98" cy="110.28" r="1.26" fill="#8c62e8" opacity="0.73"/><circle cx="875.69" cy="248.88" r="1.52" fill="#d46ae7" opacity="0.71"/><circle cx="1008.18" cy="126.12" r="1.21" fill="#8c62e8" opacity="0.40"/><circle cx="869.25" cy="26.95" r="1.20" fill="#8c62e8" opacity="0.38"/><circle cx="749.10" cy="90.36" r="0.66" fill="#d46ae7" opacity="0.57"/><circle cx="712.82" cy="413.00" r="1.60" fill="#8c62e8" opacity="0.79"/><circle cx="571.67" cy="183.06" r="0.92" fill="#8c62e8" opacity="0.34"/><circle cx="1070.61" cy="173.49" r="0.65" fill="#d46ae7" opacity="0.30"/><circle cx="863.31" cy="432.00" r="1.04" fill="#8c62e8" opacity="0.71"/><circle cx="819.73" cy="92.04" r="0.77" fill="#8c62e8" opacity="0.54"/><circle cx="1026.02" cy="318.32" r="1.43" fill="#d46ae7" opacity="0.74"/><circle cx="578.62" cy="169.83" r="0.88" fill="#8c62e8" opacity="0.61"/><circle cx="882.62" cy="290.86" r="1.37" fill="#8c62e8" opacity="0.20"/><circle cx="914.00" cy="285.67" r="1.19" fill="#d46ae7" opacity="0.52"/><circle cx="721.71" cy="115.32" r="1.36" fill="#8c62e8" opacity="0.66"/><circle cx="884.80" cy="41.56" r="1.33" fill="#8c62e8" opacity="0.37"/><circle cx="593.93" cy="182.07" r="0.64" fill="#d46ae7" opacity="0.60"/><circle cx="912.76" cy="380.70" r="0.82" fill="#8c62e8" opacity="0.25"/><circle cx="644.27" cy="102.05" r="0.84" fill="#8c62e8" opacity="0.49"/><circle cx="867.21" cy="267.90" r="0.83" fill="#d46ae7" opacity="0.40"/><circle cx="853.12" cy="427.23" r="0.89" fill="#8c62e8" opacity="0.73"/><circle cx="737.86" cy="257.26" r="1.11" fill="#8c62e8" opacity="0.76"/><circle cx="839.15" cy="302.62" r="1.17" fill="#d46ae7" opacity="0.46"/><circle cx="732.90" cy="412.56" r="1.28" fill="#8c62e8" opacity="0.57"/><circle cx="591.58" cy="312.75" r="0.76" fill="#8c62e8" opacity="0.61"/><circle cx="863.19" cy="406.69" r="1.50" fill="#d46ae7" opacity="0.67"/><circle cx="881.53" cy="44.69" r="1.38" fill="#8c62e8" opacity="0.71"/><circle cx="979.62" cy="241.41" r="1.17" fill="#8c62e8" opacity="0.63"/><circle cx="806.11" cy="326.80" r="1.30" fill="#d46ae7" opacity="0.51"/><circle cx="593.28" cy="236.83" r="1.25" fill="#8c62e8" opacity="0.41"/><circle cx="940.93" cy="289.62" r="0.68" fill="#8c62e8" opacity="0.55"/><text x="48" y="56" fill="#9e9cc4" font-size="13" text-anchor="start" font-weight="400">PROJECT / OPEN SOURCE</text><text x="48" y="182" font-size="74.0" fill="url(#brand)" font-weight="700">patchmem</text><text x="50" y="242.0" fill="#eeeffd" font-size="24" text-anchor="start" font-weight="400">Compare tool decisions around a memory</text><text x="50" y="275.6" fill="#eeeffd" font-size="24" text-anchor="start" font-weight="400">patch.</text><path d="M656.0 309.0L762.6 193.5L864.0 235.5L975.8 120.0" fill="none" stroke="#8c62e8" stroke-width="1.5" marker-end="url(#arrow)"/><path d="M656.0 309.0L762.6 193.5L864.0 235.5L975.8 120.0" class="flow" fill="none" stroke="#acb0f6" stroke-width="2"/><circle cx="656.0" cy="309.0" r="12" fill="#acb0f6" opacity=".5" filter="url(#glow)"/><circle class="pulse" cx="656.0" cy="309.0" r="3" fill="#acb0f6"/><circle cx="762.6" cy="193.5" r="12" fill="#acb0f6" opacity=".5" filter="url(#glow)"/><circle class="pulse" cx="762.6" cy="193.5" r="3" fill="#acb0f6"/><circle cx="864.0" cy="235.5" r="12" fill="#acb0f6" opacity=".5" filter="url(#glow)"/><circle class="pulse" cx="864.0" cy="235.5" r="3" fill="#acb0f6"/><circle cx="975.8" cy="120.0" r="12" fill="#acb0f6" opacity=".5" filter="url(#glow)"/><circle class="pulse" cx="975.8" cy="120.0" r="3" fill="#acb0f6"/></svg>
